<svg xmlns="http://www.w3.org/2000/svg" enable-background="new 0 0 64 64" viewBox="0 0 64 64"><path d="M8.76,48.42c-2.15-0.07-3.94-0.4-5.34-0.98c-2.41-0.99-3.81-3.54-3.33-6.06c0.01-0.07,0.13-0.6,0.2-0.76l1.63-4.29
				c0.68-1.87,1.23-3.85,1.67-6.04c0.5-2.47,1.36-5.51,1.37-5.54c0.23-1.06,0.94-1.92,1.91-2.31c0.95-0.38,2-0.26,2.89,0.34
				c0.34,0.22,1.31,1.16,2.65,2.45c0.5,0.48,0.95,0.92,1.23,1.18c1.14,1.06,2.63,1.55,3.99,1.34c1.38-0.23,2.06-0.95,2.07-0.96
				c1.67-2.06,0.29-6.5,0.13-7c-0.27-1.36,0.08-2.55,0.96-3.35c0.85-0.77,2.06-1.02,3.23-0.67c0.53,0.16,1.22,0.81,2.48,2
				c3.12,2.95,8.92,8.45,19.82,13.65l-0.1,0.5l0.21-0.45c0.87,0.41,3.55,1.21,3.58,1.22c2.65,0.71,5.39,1.23,8.14,1.55
				c1.15,0.11,2.79,0.4,4.06,1.08c1.26,0.67,1.97,2.12,1.76,3.6c-0.26,1.85-1.06,2.66-1.75,3.37l-0.09,0.09
				c-0.34,0.41-4.48,5.29-12.7,5.51L8.76,48.42z M8,23.2c-0.26,0-0.51,0.05-0.75,0.15c-0.67,0.27-1.16,0.87-1.33,1.64
				c-0.02,0.06-0.87,3.06-1.36,5.49c-0.45,2.24-1.01,4.26-1.72,6.19l-1.63,4.31c-0.04,0.11-0.13,0.5-0.15,0.6
				c-0.39,2.06,0.76,4.16,2.74,4.97c1.29,0.53,2.97,0.84,4.98,0.9l40.63-0.55c7.94-0.21,11.93-5.11,11.97-5.16
				c0.01-0.01,0.02-0.02,0.03-0.04l0.11-0.11c0.68-0.7,1.26-1.3,1.48-2.82c0.15-1.07-0.35-2.12-1.25-2.59
				c-0.88-0.48-2.19-0.82-3.7-0.97c-2.8-0.33-5.59-0.86-8.3-1.58c-0.13-0.04-2.8-0.83-3.73-1.27c0,0-0.11-0.05-0.11-0.05
				c-11.04-5.27-17.14-11.05-20.07-13.83c-0.95-0.9-1.77-1.68-2.08-1.77c-0.84-0.25-1.69-0.08-2.28,0.46
				c-0.61,0.56-0.86,1.41-0.68,2.35c0.28,0.86,1.65,5.48-0.33,7.91c-0.05,0.06-0.91,1-2.66,1.29c-1.66,0.27-3.46-0.32-4.82-1.59
				c-0.28-0.26-0.74-0.7-1.24-1.19c-0.88-0.85-2.21-2.14-2.51-2.33C8.85,23.33,8.42,23.2,8,23.2z"/><path d="M33.02 43.4c-10.8 0-21.6-.71-32.33-2.12C.42 41.24.23 41 .26 40.73c.04-.27.27-.46.55-.42 20.48 2.69 41.24 2.81 61.7.34.27-.03.52.16.55.43.03.27-.16.52-.43.55C52.81 42.8 42.92 43.4 33.02 43.4zM21.1 37.97c-.1 0-.2-.03-.29-.1-.22-.16-.27-.47-.11-.69l3.87-5.29c.16-.22.47-.27.69-.11.22.16.27.47.11.69l-3.87 5.29C21.41 37.9 21.26 37.97 21.1 37.97zM25.48 37.6c-.1 0-.2-.03-.29-.1-.22-.16-.27-.47-.11-.69l3.87-5.29c.16-.22.47-.27.69-.11.22.16.27.47.11.69l-3.87 5.29C25.78 37.53 25.63 37.6 25.48 37.6z"/></svg>